<?xml version="1.0" encoding="UTF-8"?>
<!DOCTYPE svg PUBLIC "-//W3C//DTD SVG 1.1//EN" "http://www.w3.org/Graphics/SVG/1.1/DTD/svg11.dtd">
<!-- Creator: CorelDRAW 2021 (64-Bit) -->
<svg xmlns="http://www.w3.org/2000/svg" xml:space="preserve" width="1200px" height="196px" version="1.1" style="shape-rendering:geometricPrecision; text-rendering:geometricPrecision; image-rendering:optimizeQuality; fill-rule:evenodd; clip-rule:evenodd"
viewBox="0 0 2091.02 342.31"
 xmlns:xlink="http://www.w3.org/1999/xlink"
 xmlns:xodm="http://www.corel.com/coreldraw/odm/2003">
 <defs>
  <style type="text/css">
   <![CDATA[
    .fil4 {fill:#E6E6E6}
    .fil5 {fill:#4E148F;fill-rule:nonzero}
    .fil3 {fill:#E6E6E6;fill-rule:nonzero}
    .fil0 {fill:url(#id0);fill-rule:nonzero}
    .fil1 {fill:url(#id1);fill-rule:nonzero}
    .fil2 {fill:url(#id2);fill-rule:nonzero}
   ]]>
  </style>
  <radialGradient id="id0" gradientUnits="userSpaceOnUse" gradientTransform="matrix(-1.19454 0.459268 -0.459267 -1.19454 453 299)" cx="170.27" cy="172.04" r="147.99" fx="170.27" fy="172.04">
   <stop offset="0" style="stop-opacity:1; stop-color:#C4C6C7"/>
   <stop offset="0.560784" style="stop-opacity:1; stop-color:#C4C6C7"/>
   <stop offset="0.788235" style="stop-opacity:1; stop-color:#C4C6C7"/>
   <stop offset="0.929412" style="stop-opacity:1; stop-color:#888A8D"/>
   <stop offset="1" style="stop-opacity:1; stop-color:#320869"/>
  </radialGradient>
  <radialGradient id="id1" gradientUnits="userSpaceOnUse" gradientTransform="matrix(2.90736 -1.33466 1.33466 2.90737 -581 -62)" cx="189.19" cy="164.82" r="49.65" fx="189.19" fy="164.82">
   <stop offset="0" style="stop-opacity:1; stop-color:#660C6E"/>
   <stop offset="0.329412" style="stop-opacity:1; stop-color:#620D73"/>
   <stop offset="0.819608" style="stop-opacity:1; stop-color:#4E148F"/>
   <stop offset="1" style="stop-opacity:1; stop-color:#320869"/>
  </radialGradient>
  <radialGradient id="id2" gradientUnits="userSpaceOnUse" gradientTransform="matrix(-2.90736 1.33465 -1.33466 -2.90735 266 1213)" xlink:href="#id1" cx="-33.98" cy="298.87" r="49.65" fx="-33.98" fy="298.87">
  </radialGradient>
 </defs>
 <g id="__x0023_Layer_x0020_1">
  <metadata id="CorelCorpID_0Corel-Layer"/>
  <g id="_2048542429968">
   <path class="fil0" d="M259.72 181.99c0,72.71 -58.95,131.66 -131.66,131.66 -36.94,0 -70.31,-15.23 -94.22,-39.73 31.06,41.52 80.61,68.39 136.44,68.39 94.04,0 170.26,-76.23 170.26,-170.27 0,-2.42 -0.08,-4.82 -0.18,-7.22l-258.65 0c0,-72.72 58.96,-131.67 131.67,-131.67 39.19,0 74.36,17.14 98.48,44.32 -30.54,-45.64 -82.55,-75.7 -141.58,-75.7 -94.04,0 -170.27,76.24 -170.27,170.27 0,3.34 -0.03,6.68 0.01,9.95l259.7 0z"/>
   <path class="fil1" d="M223.18 47.93c0,0 73.57,18.27 73.57,116.89l43.61 -0.02c0,0 -0.08,-20.9 -10.36,-45.47 -12.11,-28.92 -43.51,-70.55 -106.82,-71.4z"/>
   <path class="fil2" d="M117.18 298.87c0,0 -73.57,-18.27 -73.57,-116.88l-43.61 0.02c0,0 0.08,20.89 10.36,45.46 12.11,28.93 43.51,70.56 106.82,71.4z"/>
  </g>
  <g id="_2048542430592">
   <path class="fil3" d="M378.74 170.3c-0.27,5.84 -0.55,10.84 -0.55,15.29 0,38.92 22.52,53.1 75.34,53.1l68.67 0c60.88,0 83.4,-13.9 83.4,-60.33 0,-25.02 -3.9,-40.03 -19.19,-49.2 -11.67,-6.95 -29.74,-8.07 -55.04,-8.07l-72.56 0c-38.92,0 -55.05,-4.45 -55.05,-34.19 0,-27.25 13.63,-33.64 53.38,-33.64l68.95 0c37.53,0 50.04,4.73 50.04,33.92l0 3.05 24.18 0 0 -5.83c0,-18.63 -3.89,-31.69 -13.62,-40.03 -14.45,-11.96 -38.92,-12.79 -76.17,-12.79l-45.87 0c-61.16,0 -87.02,11.39 -87.02,56.43 0,41.7 20.58,55.6 73.12,55.6l85.34 0c31.7,0 44.49,4.73 44.49,33.36 0,33.92 -16.96,39.2 -66.17,39.2l-52.82 0c-41.7,0 -59.22,-6.39 -59.22,-33.91 0,-2.78 0.28,-6.68 0.56,-11.96l-24.19 0z"/>
   <polygon class="fil3" points="687.05,236.19 718.47,236.19 763.5,112.75 806.87,236.19 838.29,236.19 905.56,93.29 880.54,93.29 824.38,216.17 781.02,93.29 746.54,93.29 702.9,216.17 649.24,93.29 623.11,93.29 "/>
   <path class="fil3" d="M946.43 149.17c0,-28.63 14.73,-36.97 48.65,-36.97l35.31 0c34.75,0 48.65,5.28 48.65,33.64l0 3.33 -132.61 0zm84.51 -57.82l-35.58 0c-51.99,0 -71.73,17.79 -71.73,62.27l0 22.8c0,43.92 20.02,61.71 71.73,61.71l42.81 0c42.81,0 64.77,-14.73 64.77,-41.98l0 -3.61 -23.63 0 0 1.39c0,16.68 -15.01,24.19 -46.42,24.19l-37.26 0c-37.25,0 -49.2,-11.12 -49.2,-40.59l0 -7.79 156.23 0c0.28,-3.89 0.28,-7.5 0.28,-11.12 0,-50.87 -19.18,-67.27 -72,-67.27z"/>
   <path class="fil3" d="M1159.38 149.17c0,-28.63 14.73,-36.97 48.65,-36.97l35.31 0c34.75,0 48.65,5.28 48.65,33.64l0 3.33 -132.61 0zm84.51 -57.82l-35.58 0c-51.99,0 -71.73,17.79 -71.73,62.27l0 22.8c0,43.92 20.02,61.71 71.73,61.71l42.81 0c42.81,0 64.78,-14.73 64.78,-41.98l0 -3.61 -23.63 0 0 1.39c0,16.68 -15.02,24.19 -46.43,24.19l-37.25 0c-37.26,0 -49.21,-11.12 -49.21,-40.59l0 -7.79 156.24 0c0.28,-3.89 0.28,-7.5 0.28,-11.12 0,-50.87 -19.19,-67.27 -72.01,-67.27z"/>
   <polygon class="fil4" points="1406.8,88.34 1380.96,88.34 1380.96,236.19 1380.96,237.78 1379.37,237.78 1359.71,237.78 1358.12,237.78 1358.12,236.19 1358.12,88.34 1332.28,88.34 1330.69,88.34 1330.69,86.75 1330.69,66.69 1330.69,65.1 1332.28,65.1 1358.12,65.1 1358.12,6.1 1358.12,4.5 1359.71,4.5 1379.37,4.5 1380.96,4.5 1380.96,6.1 1380.96,65.1 1406.8,65.1 1408.39,65.1 1408.39,66.69 1408.39,86.75 1408.39,88.34 "/>
   <path class="fil3" d="M1458.35 170.3c-0.27,5.84 -0.55,10.84 -0.55,15.29 0,38.92 22.52,53.1 75.34,53.1l68.66 0c60.89,0 83.41,-13.9 83.41,-60.33 0,-25.02 -3.9,-40.03 -19.19,-49.2 -11.67,-6.95 -29.74,-8.07 -55.04,-8.07l-72.56 0c-38.92,0 -55.05,-4.45 -55.05,-34.19 0,-27.25 13.63,-33.64 53.38,-33.64l68.95 0c37.53,0 50.04,4.73 50.04,33.92l0 3.05 24.18 0 0 -5.83c0,-18.63 -3.89,-31.69 -13.62,-40.03 -14.45,-11.96 -38.92,-12.79 -76.17,-12.79l-45.87 0c-61.16,0 -87.02,11.39 -87.02,56.43 0,41.7 20.58,55.6 73.12,55.6l85.34 0c31.7,0 44.49,4.73 44.49,33.36 0,33.92 -16.96,39.2 -66.17,39.2l-52.82 0c-41.7,0 -59.22,-6.39 -59.22,-33.91 0,-2.78 0.28,-6.68 0.56,-11.96l-24.19 0z"/>
   <path class="fil3" d="M1795.02 217c-40.04,0 -51.43,-8.06 -51.43,-44.47l0 -16.96c0,-35.31 11.67,-43.37 51.43,-43.37l37.25 0c39.75,0 51.71,8.06 51.71,43.37l0 16.96c0,36.41 -11.68,44.47 -51.71,44.47l-37.25 0zm-5.84 21.13l49.21 0c50.04,0 68.38,-18.35 68.38,-63.1l0 -22.52c0,-43.37 -19.45,-61.16 -68.38,-61.16l-49.21 0c-48.93,0 -68.39,17.79 -68.39,61.16l0 22.52c0,44.75 18.35,63.1 68.39,63.1z"/>
   <path class="fil3" d="M1989.94 88.34l-26.66 0 0 147.85 0 1.59 -1.59 0 -19.65 0 -1.59 0 0 -1.59 0 -147.85 -8.65 0 -1.59 0 0 -1.59 0 -20.06 0 -1.59 1.59 0 8.71 0c0.27,-6.48 0.55,-11.79 0.88,-15.93 0.35,-4.59 0.76,-7.89 1.22,-9.86l0 0c1.12,-5.07 3.05,-9.89 5.76,-14.43 2.7,-4.52 6.19,-8.78 10.47,-12.78l0 0c4.33,-4.02 8.87,-7.04 13.62,-9.06l0 0c4.78,-2.02 9.77,-3.04 14.96,-3.04l2.52 0 1.59 0 0 1.59 0 18.83 0 1.38 -1.37 0.2c-3.7,0.51 -7.12,1.64 -10.26,3.35 -3.16,1.71 -6.06,4.05 -8.7,6.99 -2.64,2.93 -4.63,6.05 -5.95,9.32 -1.31,3.25 -1.97,6.68 -1.97,10.29l0 13.15 26.66 0 1.59 0 0 1.59 0 20.06 0 1.59 -1.59 0z"/>
   <polygon class="fil3" points="2089.43,88.34 2063.59,88.34 2063.59,236.19 2063.59,237.78 2062,237.78 2042.35,237.78 2040.76,237.78 2040.76,236.19 2040.76,88.34 2014.92,88.34 2013.33,88.34 2013.33,86.75 2013.33,66.69 2013.33,65.1 2014.92,65.1 2040.76,65.1 2040.76,6.1 2040.76,4.5 2042.35,4.5 2062,4.5 2063.59,4.5 2063.59,6.1 2063.59,65.1 2089.43,65.1 2091.02,65.1 2091.02,66.69 2091.02,86.75 2091.02,88.34 "/>
  </g>
  <g id="_2048542459296">
   <g>
    <path class="fil3" d="M1545.12 321.51c-0.07,1.75 -0.14,3.24 -0.14,4.57 0,11.65 5.84,15.89 19.53,15.89l17.81 0c15.79,0 21.62,-4.16 21.62,-18.05 0,-7.48 -1,-11.98 -4.97,-14.72 -3.03,-2.08 -7.71,-2.41 -14.27,-2.41l-18.82 0c-10.09,0 -14.27,-1.33 -14.27,-10.23 0,-8.15 3.53,-10.06 13.84,-10.06l17.88 0c9.73,0 12.97,1.41 12.97,10.14l0 0.92 6.27 0 0 -1.75c0,-5.57 -1,-9.48 -3.53,-11.98 -3.75,-3.57 -10.09,-3.82 -19.75,-3.82l-11.89 0c-15.86,0 -22.56,3.41 -22.56,16.88 0,12.48 5.33,16.63 18.95,16.63l22.13 0c8.22,0 11.54,1.42 11.54,9.98 0,10.15 -4.4,11.73 -17.16,11.73l-13.7 0c-10.81,0 -15.35,-1.91 -15.35,-10.14 0,-0.84 0.07,-2 0.15,-3.58l-6.28 0z"/>
    <path class="fil3" d="M1641.15 297.89l-10.67 0c-11.03,0 -15.86,3.49 -15.86,12.31l0 1.16 6.2 0 0 -1.24c0,-5.24 2.67,-5.83 10.6,-5.83l8.79 0c8.65,0 11.97,1.92 11.97,9.65l0 5.82c-2.67,-3.66 -6.78,-5.07 -12.69,-5.07l-10.38 0c-12.4,0 -17.01,3.41 -17.01,13.22 0,10.23 4.4,13.89 17.15,13.89l9.88 0c6.78,0 10.88,-1.16 13.05,-6.24l0 5.66 5.62 0 0 -27.61c0,-10.9 -5.26,-15.72 -16.65,-15.72zm10.67 32.02c0,4.74 -3.9,5.57 -12.19,5.57l-8.86 0c-9.81,0 -12.26,-0.83 -12.26,-7.9 0,-6.24 3.1,-7.07 12.26,-7.07l8.86 0c8.29,0 12.19,0.92 12.19,5.66l0 3.74z"/>
    <path class="fil3" d="M1690.67 341.22l5.91 0 0 -42.75 -5.91 0 0 42.75zm0 -52.4l5.91 0 0 -8.06 -5.91 0 0 8.06z"/>
    <path class="fil3" d="M1723.9 322.26l15.21 0c5.84,0 7.5,1.58 7.5,6.23 0,6.08 -1.23,6.99 -7.57,6.99l-16.58 0c-7.14,0 -9.44,-0.75 -9.44,-8.23l0 -0.75 -5.34 0c0.15,11.64 3.97,15.38 13.48,15.38l14.92 0c11.25,0 16.58,-2.16 16.58,-11.22 0,-4.74 0,-8.07 -2.52,-10.98 -2.59,-3.08 -6.85,-3.24 -13.48,-3.24l-10.09 0.08c-9.95,0 -12.9,-0.42 -12.9,-6.24 0,-5.65 2.81,-6.07 12.9,-6.07l5.77 0c9.29,0 13.26,0.67 13.26,5.16l0 1.74 5.62 0 0 -2.82c0,-7.41 -5.48,-10.32 -16.79,-10.32l-10.53 0c-11.68,0 -16.07,3.16 -16.07,12.31 0,10.4 3.82,11.98 16.07,11.98z"/>
    <path class="fil3" d="M1809.83 297.89l-10.67 0c-11.02,0 -15.85,3.49 -15.85,12.31l0 1.16 6.19 0 0 -1.24c0,-5.24 2.67,-5.83 10.6,-5.83l8.8 0c8.65,0 11.96,1.92 11.96,9.65l0 5.82c-2.66,-3.66 -6.77,-5.07 -12.69,-5.07l-10.38 0c-12.39,0 -17.01,3.41 -17.01,13.22 0,10.23 4.4,13.89 17.16,13.89l9.87 0c6.78,0 10.89,-1.16 13.05,-6.24l0 5.66 5.62 0 0 -27.61c0,-10.9 -5.26,-15.72 -16.65,-15.72zm10.67 32.02c0,4.74 -3.89,5.57 -12.18,5.57l-8.87 0c-9.8,0 -12.25,-0.83 -12.25,-7.9 0,-6.24 3.1,-7.07 12.25,-7.07l8.87 0c8.29,0 12.18,0.92 12.18,5.66l0 3.74z"/>
    <path class="fil3" d="M1875 313.28l5.48 0 0 -1.09c0,-10.56 -5.4,-14.3 -17.59,-14.3l-8.79 0c-11.97,0 -17.66,5.24 -17.66,16.55l0 10.81c0,11.31 5.77,16.55 17.66,16.55l10.6 0c11.31,0 16.29,-4.66 16.29,-15.55l0 -1.16 -5.55 0 0 0.49c0,7.91 -3.39,9.9 -12.11,9.9l-8.8 0c-9.01,0 -12.18,-2.33 -12.18,-11.81l0 -9.9c0,-7.4 4.04,-9.64 12.04,-9.64l8.65 0c8.72,0 11.89,0.99 11.96,9.15z"/>
    <path class="fil3" d="M1914.59 341.22l5.91 0 0 -42.75 -5.91 0 0 42.75zm0 -52.4l5.91 0 0 -8.06 -5.91 0 0 8.06z"/>
    <path class="fil3" d="M1950.49 335.48c-10.38,0 -13.33,-2.41 -13.33,-13.31l0 -5.07c0,-10.56 3.03,-12.97 13.33,-12.97l9.66 0c10.31,0 13.41,2.41 13.41,12.97l0 5.07c0,10.9 -3.03,13.31 -13.41,13.31l-9.66 0zm-1.51 6.32l12.76 0c12.97,0 17.73,-5.49 17.73,-18.88l0 -6.73c0,-12.98 -5.04,-18.3 -17.73,-18.3l-12.76 0c-12.69,0 -17.73,5.32 -17.73,18.3l0 6.73c0,13.39 4.75,18.88 17.73,18.88z"/>
    <path class="fil3" d="M1989.93 341.22l5.84 0 0 -25.53c0,-8.57 5.19,-11.48 17.16,-11.48 7.2,0 11.82,1 13.84,2.66 2.23,1.83 2.45,4.41 2.45,8.32l0 26.03 5.84 0 0 -27.86c0,-11.89 -5.84,-15.47 -20.48,-15.47 -10.02,0 -15.85,2.08 -18.81,8.48l0 -7.9 -5.84 0 0 42.75z"/>
    <path class="fil3" d="M2061.81 322.26l15.21 0c5.84,0 7.49,1.58 7.49,6.23 0,6.08 -1.22,6.99 -7.57,6.99l-16.58 0c-7.13,0 -9.44,-0.75 -9.44,-8.23l0 -0.75 -5.33 0c0.14,11.64 3.96,15.38 13.48,15.38l14.92 0c11.24,0 16.58,-2.16 16.58,-11.22 0,-4.74 0,-8.07 -2.52,-10.98 -2.6,-3.08 -6.85,-3.24 -13.48,-3.24l-10.1 0.08c-9.94,0 -12.9,-0.42 -12.9,-6.24 0,-5.65 2.81,-6.07 12.9,-6.07l5.77 0c9.3,0 13.26,0.67 13.26,5.16l0 1.74 5.63 0 0 -2.82c0,-7.41 -5.48,-10.32 -16.8,-10.32l-10.52 0c-11.68,0 -16.08,3.16 -16.08,12.31 0,10.4 3.82,11.98 16.08,11.98z"/>
    <path class="fil4" d="M1775.08 299.74l-6.35 0 0 41.48 0 0.64 -0.55 0 -4.8 0 -0.56 0 0 -0.64 0 -41.48 -1.94 0 -0.56 0 0 -0.64 0 -5.66 0 -0.63 0.56 0 1.97 0c0.06,-1.76 0.13,-3.19 0.2,-4.32 0.09,-1.3 0.19,-2.24 0.31,-2.81l0 0c0.28,-1.45 0.75,-2.82 1.42,-4.12 0.67,-1.29 1.53,-2.51 2.59,-3.64 1.07,-1.15 2.2,-2.01 3.37,-2.59l0.01 0c1.19,-0.58 2.42,-0.87 3.71,-0.87l0.62 0 0.55 0 0 0.63 0 5.31 0 0.56 -0.47 0.07c-0.89,0.15 -1.71,0.46 -2.46,0.93 -0.75,0.47 -1.44,1.12 -2.08,1.93 -0.63,0.81 -1.11,1.67 -1.42,2.57 -0.31,0.89 -0.47,1.83 -0.47,2.83l0 3.52 6.35 0 0.55 0 0 0.63 0 5.66 0 0.64 -0.55 0z"/>
    <polygon class="fil3" points="1906.47,299.63 1900.32,299.63 1900.32,341.11 1900.32,341.75 1899.77,341.75 1894.97,341.75 1894.41,341.75 1894.41,341.11 1894.41,299.63 1888.27,299.63 1887.71,299.63 1887.71,298.99 1887.71,293.34 1887.71,292.7 1888.27,292.7 1894.41,292.7 1894.41,276.26 1894.41,275.62 1894.97,275.62 1899.77,275.62 1900.32,275.62 1900.32,276.26 1900.32,292.7 1906.47,292.7 1907.02,292.7 1907.02,293.34 1907.02,298.99 1907.02,299.63 "/>
    <polygon class="fil3" points="1682.59,299.63 1676.44,299.63 1676.44,341.11 1676.44,341.75 1675.89,341.75 1671.09,341.75 1670.53,341.75 1670.53,341.11 1670.53,299.63 1664.38,299.63 1663.83,299.63 1663.83,298.99 1663.83,293.34 1663.83,292.7 1664.38,292.7 1670.53,292.7 1670.53,276.26 1670.53,275.62 1671.09,275.62 1675.89,275.62 1676.44,275.62 1676.44,276.26 1676.44,292.7 1682.59,292.7 1683.14,292.7 1683.14,293.34 1683.14,298.99 1683.14,299.63 "/>
   </g>
   <g>
    <path class="fil5" d="M1216.31 321.51c-0.08,1.75 -0.15,3.24 -0.15,4.57 0,11.65 5.84,15.89 19.54,15.89l17.8 0c15.79,0 21.63,-4.16 21.63,-18.05 0,-7.48 -1.01,-11.98 -4.98,-14.72 -3.02,-2.08 -7.71,-2.41 -14.27,-2.41l-18.81 0c-10.1,0 -14.28,-1.33 -14.28,-10.23 0,-8.15 3.54,-10.06 13.84,-10.06l17.88 0c9.73,0 12.98,1.41 12.98,10.14l0 0.92 6.27 0 0 -1.75c0,-5.57 -1.01,-9.48 -3.53,-11.98 -3.75,-3.57 -10.1,-3.82 -19.76,-3.82l-11.89 0c-15.86,0 -22.56,3.41 -22.56,16.88 0,12.48 5.33,16.63 18.96,16.63l22.13 0c8.21,0 11.53,1.42 11.53,9.98 0,10.15 -4.4,11.73 -17.16,11.73l-13.69 0c-10.82,0 -15.36,-1.91 -15.36,-10.14 0,-0.84 0.08,-2 0.15,-3.58l-6.27 0z"/>
    <polygon class="fil5" points="1296.26,341.22 1304.4,341.22 1316.08,304.29 1327.32,341.22 1335.47,341.22 1352.91,298.47 1346.43,298.47 1331.87,335.23 1320.62,298.47 1311.68,298.47 1300.37,335.23 1286.45,298.47 1279.68,298.47 "/>
    <path class="fil5" d="M1363.52 315.19c0,-8.57 3.82,-11.06 12.61,-11.06l9.16 0c9.01,0 12.61,1.58 12.61,10.06l0 1 -34.38 0zm21.91 -17.3l-9.22 0c-13.48,0 -18.6,5.32 -18.6,18.63l0 6.82c0,13.14 5.19,18.46 18.6,18.46l11.1 0c11.1,0 16.79,-4.41 16.79,-12.56l0 -1.08 -6.12 0 0 0.42c0,4.99 -3.9,7.23 -12.04,7.23l-9.66 0c-9.66,0 -12.76,-3.32 -12.76,-12.14l0 -2.33 40.51 0c0.07,-1.16 0.07,-2.24 0.07,-3.32 0,-15.22 -4.97,-20.13 -18.67,-20.13z"/>
    <path class="fil5" d="M1418.74 315.19c0,-8.57 3.82,-11.06 12.62,-11.06l9.15 0c9.01,0 12.62,1.58 12.62,10.06l0 1 -34.39 0zm21.92 -17.3l-9.23 0c-13.48,0 -18.6,5.32 -18.6,18.63l0 6.82c0,13.14 5.19,18.46 18.6,18.46l11.1 0c11.1,0 16.8,-4.41 16.8,-12.56l0 -1.08 -6.13 0 0 0.42c0,4.99 -3.89,7.23 -12.04,7.23l-9.66 0c-9.66,0 -12.76,-3.32 -12.76,-12.14l0 -2.33 40.51 0c0.08,-1.16 0.08,-2.24 0.08,-3.32 0,-15.22 -4.98,-20.13 -18.67,-20.13z"/>
    <polygon class="fil5" points="1484.66,299.63 1478.51,299.63 1478.51,341.11 1478.51,341.75 1477.96,341.75 1473.16,341.75 1472.6,341.75 1472.6,341.11 1472.6,299.63 1466.46,299.63 1465.9,299.63 1465.9,298.99 1465.9,293.34 1465.9,292.7 1466.46,292.7 1472.6,292.7 1472.6,276.26 1472.6,275.62 1473.16,275.62 1477.96,275.62 1478.51,275.62 1478.51,276.26 1478.51,292.7 1484.66,292.7 1485.21,292.7 1485.21,293.34 1485.21,298.99 1485.21,299.63 "/>
   </g>
   <g>
    <polygon class="fil3" points="1150.77,322.51 1170.81,322.51 1170.81,316.44 1150.77,316.44 "/>
    <g>
     <path class="fil3" d="M706.9 321.51c-0.08,1.75 -0.15,3.24 -0.15,4.57 0,11.65 5.84,15.89 19.54,15.89l17.8 0c15.79,0 21.63,-4.16 21.63,-18.05 0,-7.48 -1.01,-11.98 -4.98,-14.72 -3.02,-2.08 -7.71,-2.41 -14.27,-2.41l-18.81 0c-10.1,0 -14.28,-1.33 -14.28,-10.23 0,-8.15 3.54,-10.06 13.84,-10.06l17.88 0c9.73,0 12.98,1.41 12.98,10.14l0 0.92 6.27 0 0 -1.75c0,-5.57 -1.01,-9.48 -3.53,-11.98 -3.75,-3.57 -10.1,-3.82 -19.76,-3.82l-11.89 0c-15.86,0 -22.56,3.41 -22.56,16.88 0,12.48 5.33,16.63 18.96,16.63l22.13 0c8.21,0 11.53,1.42 11.53,9.98 0,10.15 -4.4,11.73 -17.16,11.73l-13.69 0c-10.82,0 -15.36,-1.91 -15.36,-10.14 0,-0.84 0.08,-2 0.15,-3.58l-6.27 0z"/>
     <path class="fil3" d="M794.2 335.48c-10.38,0 -13.34,-2.41 -13.34,-13.31l0 -5.07c0,-10.56 3.03,-12.97 13.34,-12.97l9.66 0c10.31,0 13.41,2.41 13.41,12.97l0 5.07c0,10.9 -3.03,13.31 -13.41,13.31l-9.66 0zm-1.51 6.32l12.75 0c12.98,0 17.74,-5.49 17.74,-18.88l0 -6.73c0,-12.98 -5.05,-18.3 -17.74,-18.3l-12.75 0c-12.69,0 -17.74,5.32 -17.74,18.3l0 6.73c0,13.39 4.76,18.88 17.74,18.88z"/>
     <polygon class="fil3" points="840.48,280.76 834.65,280.76 834.65,341.22 840.48,341.22 "/>
     <path class="fil3" d="M897.86 298.47l-5.98 0 0 26.62c0,7.4 -5.33,10.39 -16.58,10.39 -7.35,0 -12.11,-0.83 -14.27,-2.66 -2.16,-1.83 -2.45,-4.41 -2.45,-8.57l0 -25.78 -5.84 0 0 27.86c0,11.56 6.34,15.47 21.55,15.47 9.3,0 14.71,-1.74 17.95,-8.65l0 8.07 5.62 0 0 -42.75z"/>
     <path class="fil3" d="M928.37 341.22l5.91 0 0 -42.75 -5.91 0 0 42.75zm0 -52.4l5.91 0 0 -8.06 -5.91 0 0 8.06z"/>
     <path class="fil3" d="M964.27 335.48c-10.38,0 -13.34,-2.41 -13.34,-13.31l0 -5.07c0,-10.56 3.03,-12.97 13.34,-12.97l9.66 0c10.3,0 13.4,2.41 13.4,12.97l0 5.07c0,10.9 -3.02,13.31 -13.4,13.31l-9.66 0zm-1.52 6.32l12.76 0c12.98,0 17.73,-5.49 17.73,-18.88l0 -6.73c0,-12.98 -5.04,-18.3 -17.73,-18.3l-12.76 0c-12.68,0 -17.73,5.32 -17.73,18.3l0 6.73c0,13.39 4.76,18.88 17.73,18.88z"/>
     <path class="fil3" d="M1003.7 341.22l5.84 0 0 -25.53c0,-8.57 5.19,-11.48 17.16,-11.48 7.21,0 11.82,1 13.84,2.66 2.23,1.83 2.45,4.41 2.45,8.32l0 26.03 5.84 0 0 -27.86c0,-11.89 -5.84,-15.47 -20.47,-15.47 -10.02,0 -15.86,2.08 -18.82,8.48l0 -7.9 -5.84 0 0 42.75z"/>
     <path class="fil3" d="M1075.58 322.26l15.21 0c5.84,0 7.5,1.58 7.5,6.23 0,6.08 -1.23,6.99 -7.57,6.99l-16.58 0c-7.14,0 -9.45,-0.75 -9.45,-8.23l0 -0.75 -5.33 0c0.14,11.64 3.96,15.38 13.48,15.38l14.92 0c11.25,0 16.58,-2.16 16.58,-11.22 0,-4.74 0,-8.07 -2.52,-10.98 -2.6,-3.08 -6.85,-3.24 -13.48,-3.24l-10.09 0.08c-9.95,0 -12.91,-0.42 -12.91,-6.24 0,-5.65 2.81,-6.07 12.91,-6.07l5.76 0c9.3,0 13.27,0.67 13.27,5.16l0 1.74 5.62 0 0 -2.82c0,-7.41 -5.48,-10.32 -16.8,-10.32l-10.52 0c-11.68,0 -16.08,3.16 -16.08,12.31 0,10.4 3.82,11.98 16.08,11.98z"/>
     <polygon class="fil3" points="922.33,299.63 916.18,299.63 916.18,341.11 916.18,341.75 915.63,341.75 910.83,341.75 910.27,341.75 910.27,341.11 910.27,299.63 904.13,299.63 903.57,299.63 903.57,298.99 903.57,293.34 903.57,292.7 904.13,292.7 910.27,292.7 910.27,276.26 910.27,275.62 910.83,275.62 915.63,275.62 916.18,275.62 916.18,276.26 916.18,292.7 922.33,292.7 922.88,292.7 922.88,293.34 922.88,298.99 922.88,299.63 "/>
    </g>
   </g>
   <g>
    <path class="fil5" d="M378.08 321.51c-0.07,1.75 -0.14,3.24 -0.14,4.57 0,11.65 5.83,15.89 19.53,15.89l17.81 0c15.78,0 21.62,-4.16 21.62,-18.05 0,-7.48 -1.01,-11.98 -4.97,-14.72 -3.03,-2.08 -7.72,-2.41 -14.28,-2.41l-18.81 0c-10.09,0 -14.27,-1.33 -14.27,-10.23 0,-8.15 3.53,-10.06 13.84,-10.06l17.87 0c9.74,0 12.98,1.41 12.98,10.14l0 0.92 6.27 0 0 -1.75c0,-5.57 -1.01,-9.48 -3.53,-11.98 -3.75,-3.57 -10.09,-3.82 -19.75,-3.82l-11.9 0c-15.86,0 -22.56,3.41 -22.56,16.88 0,12.48 5.34,16.63 18.96,16.63l22.13 0c8.22,0 11.53,1.42 11.53,9.98 0,10.15 -4.39,11.73 -17.15,11.73l-13.7 0c-10.81,0 -15.35,-1.91 -15.35,-10.14 0,-0.84 0.07,-2 0.14,-3.58l-6.27 0z"/>
    <polygon class="fil5" points="458.03,341.22 466.17,341.22 477.85,304.29 489.1,341.22 497.24,341.22 514.69,298.47 508.2,298.47 493.64,335.23 482.39,298.47 473.46,298.47 462.14,335.23 448.23,298.47 441.45,298.47 "/>
    <path class="fil5" d="M525.29 315.19c0,-8.57 3.82,-11.06 12.62,-11.06l9.15 0c9.01,0 12.62,1.58 12.62,10.06l0 1 -34.39 0zm21.92 -17.3l-9.23 0c-13.48,0 -18.6,5.32 -18.6,18.63l0 6.82c0,13.14 5.19,18.46 18.6,18.46l11.1 0c11.1,0 16.8,-4.41 16.8,-12.56l0 -1.08 -6.13 0 0 0.42c0,4.99 -3.89,7.23 -12.04,7.23l-9.66 0c-9.66,0 -12.76,-3.32 -12.76,-12.14l0 -2.33 40.51 0c0.08,-1.16 0.08,-2.24 0.08,-3.32 0,-15.22 -4.98,-20.13 -18.67,-20.13z"/>
    <path class="fil5" d="M580.52 315.19c0,-8.57 3.82,-11.06 12.61,-11.06l9.16 0c9.01,0 12.61,1.58 12.61,10.06l0 1 -34.38 0zm21.91 -17.3l-9.23 0c-13.48,0 -18.59,5.32 -18.59,18.63l0 6.82c0,13.14 5.19,18.46 18.59,18.46l11.1 0c11.11,0 16.8,-4.41 16.8,-12.56l0 -1.08 -6.13 0 0 0.42c0,4.99 -3.89,7.23 -12.04,7.23l-9.66 0c-9.65,0 -12.75,-3.32 -12.75,-12.14l0 -2.33 40.51 0c0.07,-1.16 0.07,-2.24 0.07,-3.32 0,-15.22 -4.97,-20.13 -18.67,-20.13z"/>
    <polygon class="fil5" points="646.43,299.63 640.29,299.63 640.29,341.11 640.29,341.75 639.73,341.75 634.93,341.75 634.38,341.75 634.38,341.11 634.38,299.63 628.23,299.63 627.68,299.63 627.68,298.99 627.68,293.34 627.68,292.7 628.23,292.7 634.38,292.7 634.38,276.26 634.38,275.62 634.93,275.62 639.73,275.62 640.29,275.62 640.29,276.26 640.29,292.7 646.43,292.7 646.99,292.7 646.99,293.34 646.99,298.99 646.99,299.63 "/>
   </g>
  </g>
 </g>
</svg>
